<svg width="1270" height="1166" viewBox="0 0 1270 1166" fill="none" xmlns="http://www.w3.org/2000/svg">
<path d="M275 1163.91C-215.861 1197.99 59.2537 590.969 265.962 269.922C270.255 263.255 279.745 263.255 284.038 269.922C490.746 590.969 765.861 1197.99 275 1163.91Z" fill="#00629B"/>
<path d="M365.914 610.631C389.016 620.592 426.738 646.294 399.5 672.742C372.213 699.238 365.159 784.611 365.003 825.359C364.999 826.283 365.239 827.129 365.721 827.917C408.349 897.54 482.991 1041.3 446 1068.74C409.335 1095.94 377.429 1107.9 365.509 1110.63C365.161 1110.71 364.82 1110.74 364.463 1110.74H275H185.518C185.161 1110.74 184.82 1110.71 184.472 1110.63C172.551 1107.9 140.646 1095.94 103.981 1068.74C66.9901 1041.3 141.632 897.54 184.26 827.917C184.742 827.129 184.982 826.283 184.978 825.359C184.822 784.611 177.768 699.238 150.481 672.742C123.243 646.294 160.965 620.592 184.066 610.631C184.677 610.367 185.323 610.242 185.989 610.242H229.981V549.242C229.981 546.48 232.219 544.242 234.981 544.242H263.481V477.742C245.682 473.093 206.515 467.766 187.19 481.954C185.768 482.998 183.95 483.416 182.268 482.884L175.863 480.859C171.875 479.599 171.131 474.338 174.703 472.164C193.32 460.833 218.144 449.319 242.5 444.892L230.463 400.286C230.175 399.219 230.601 398.088 231.522 397.477C232.985 396.506 234.97 397.256 235.424 398.953L247.5 444.084C258.667 442.51 269.637 442.543 279.761 444.892L291.5 402.143C291.962 400.458 294.028 399.837 295.343 400.988C296.047 401.603 296.322 402.575 296.047 403.469L283 445.732C300.928 450.887 315.87 463.834 324 488.742C349.2 565.942 309.5 519.575 286.5 483.742V544.242H315C317.761 544.242 320 546.48 320 549.242V610.242H363.992C364.657 610.242 365.303 610.367 365.914 610.631Z" fill="#FDE428"/>
<path d="M363 227.798C324.878 189.7 229.442 174.558 191 177C376.803 93.8449 835.926 -115.857 1270 83.7157V343C1176.78 125.258 1023 44 363 227.798Z" fill="#00629B"/>
<path d="M194 176C210.167 197.5 277.5 243 365.5 227C346 210 274 170.8 194 176Z" fill="#004066"/>
<circle cx="233" cy="396" r="10" fill="#FDE428"/>
<circle cx="295" cy="396" r="10" fill="#FDE428"/>
</svg>
